Coordinates
version=1
nRows=19
nColumns=36
inDegrees=yes

Units are S.I. units (second, meters, Newtons, ...)
If the header above contains a line with 'inDegrees', this indicates whether rotational values are in degrees (yes) or radians (no).

endheader
time	pelvis_tilt	pelvis_list	pelvis_rotation	pelvis_tx	pelvis_ty	pelvis_tz	hip_flexion_r	hip_adduction_r	hip_rotation_r	knee_angle_r	knee_angle_r_beta	ankle_angle_r	subtalar_angle_r	mtp_angle_r	hip_flexion_l	hip_adduction_l	hip_rotation_l	knee_angle_l	knee_angle_l_beta	ankle_angle_l	subtalar_angle_l	mtp_angle_l	lumbar_extension	lumbar_bending	lumbar_rotation	arm_flex_r	arm_add_r	arm_rot_r	elbow_flex_r	pro_sup_r	arm_flex_l	arm_add_l	arm_rot_l	elbow_flex_l	pro_sup_l
      0.00000000	     -2.94997880	     -1.57153684	     -4.49461214	      0.42075016	      1.29067566	     -0.26549228	      2.15716953	     -1.72416916	     -5.16947633	      9.18296014	      0.16027289	     19.83203529	      4.56986646	     -6.45529479	     -1.32932277	     -4.22241192	    -10.47894081	      6.36046647	      0.11101108	     18.59782130	      5.73056237	     -6.45529479	     -2.61700857	      2.02071743	      4.25778071	      3.21656207	    -12.04755397	      9.18147899	     18.80972803	     90.43958697	     -6.12174570	     -8.49112259	     -4.72902520	     21.93743274	     91.82521256
      0.01666670	     -2.89596789	     -1.84642536	     -5.14536484	      0.42162051	      1.28841954	     -0.26585855	      1.10045199	     -1.19503315	     -7.18205013	      7.55572319	      0.13187225	     20.77842228	      4.87072139	     -6.64252441	     -1.78876986	     -4.33273711	    -12.31250261	      5.55832304	      0.09701104	     18.24364333	      5.18241591	     -6.64252441	     -4.07338033	      1.99025532	      4.49771038	      2.71251134	    -12.72486253	      9.89058058	     20.50921616	     88.31962925	     -7.18687285	     -8.36330641	     -5.33716718	     23.28951326	     89.16337543
      0.03333330	     -2.70342731	     -1.97268366	     -4.73883247	      0.41203780	      1.28897557	     -0.26264939	      1.30581255	     -0.85285030	     -8.40842765	      8.26997064	      0.14433822	     22.00266212	      4.63953936	     -6.76971050	     -1.59046380	     -4.46148315	    -12.67039794	      5.97522587	      0.10428737	     19.20481678	      5.29672510	     -6.76971050	     -5.60873296	      1.90115117	      3.37820728	      3.61241466	    -13.33632319	     13.15016145	     21.62243033	     93.24695625	     -7.56355923	     -8.36386717	     -7.66638576	     24.70859097	     91.90037991
      0.05000000	     -2.82826242	     -1.65232208	     -4.30658504	      0.41216433	      1.28798316	     -0.26981586	      1.83413435	     -1.34737643	     -9.25300398	      9.07324939	      0.15835808	     22.91089966	      4.00861237	     -6.77680880	     -0.97135639	     -4.08050450	    -12.76398437	      6.76331478	      0.11804211	     19.91756596	      5.28245668	     -6.77680880	     -6.49930057	      1.54272952	      2.98009652	      4.08445750	    -13.49319703	     13.08637843	     21.54635292	     93.41959216	     -7.16435050	     -8.49470529	     -7.80078476	     24.75649904	     92.05184590
      0.06666670	     -3.01473384	     -1.26557395	     -3.92967973	      0.41042751	      1.28754409	     -0.26985587	      2.54027822	     -1.84955536	     -9.90584419	      9.99661173	      0.17447379	     24.04619957	      4.04394154	     -7.08954823	     -0.17106463	     -3.73346326	    -12.66559831	      7.64753603	      0.13347468	     20.79225727	      5.55582039	     -7.08954823	     -7.04210208	      1.06441529	      1.31163175	      5.58494039	    -13.11640107	     13.44094301	     19.73758674	     99.65663552	     -7.62323182	     -8.18145542	    -11.83343950	     25.38624103	     97.62661018
      0.08333330	     -3.19566964	     -0.81037428	     -3.72341926	      0.40982800	      1.28470672	     -0.26985948	      3.22416934	     -2.49750564	    -10.30327804	     10.91196784	      0.19044977	     24.57412712	      3.61908975	     -7.15535127	      0.48265230	     -3.29947506	    -12.68510565	      8.35063511	      0.14574608	     21.39830606	      5.77783969	     -7.15535127	     -7.54870917	      0.54764714	      1.20479130	      5.71662869	    -13.16427651	     13.97367383	     18.91551934	     99.71510451	     -7.03740094	     -8.44270654	    -11.04391541	     24.90723281	     97.68200021
      0.10000000	     -3.23136103	     -0.40363516	     -3.58299994	      0.40706732	      1.28759060	     -0.26321721	      3.69945004	     -3.01875254	    -10.54008724	     11.67888950	      0.20383507	     24.76075090	      3.16947567	     -7.15793183	      0.98932459	     -2.99961636	    -12.81992160	      9.05315556	      0.15800737	     21.47685831	      5.88261543	     -7.15793183	     -8.59992597	     -0.12769519	      0.99345540	      5.52084997	    -13.16697365	     14.02446141	     18.64019808	     99.79685226	     -6.40686137	     -8.81824223	    -11.04678775	     24.99158896	     97.74293053
      0.11666670	     -3.42834549	      0.06923470	     -3.74808705	      0.40616334	      1.28476035	     -0.26324770	      4.59310976	     -3.60158189	    -10.37302242	     12.79193805	      0.22326144	     25.09159048	      2.48880450	     -7.18989083	      1.67864758	     -2.66723153	    -13.47438582	      9.91797699	      0.17310135	     21.93831420	      6.47075764	     -7.18989083	     -9.19821868	     -0.82223114	      1.10370906	      5.58159411	    -13.03529633	     14.44470598	     17.48903829	    100.04473791	     -5.68663286	     -9.22647190	    -10.32307413	     23.99086291	     97.94287361
      0.13333330	     -3.32548501	      0.44207483	     -3.90667814	      0.40380277	      1.28477667	     -0.26320401	      5.09493419	     -4.06070827	    -10.10139802	     13.74463259	      0.23988909	     25.11800714	      1.66014522	     -7.25092962	      2.00677478	     -2.39303017	    -13.87132767	     10.65154644	      0.18590456	     22.02475878	      6.61170315	     -7.25092962	    -10.33556745	     -1.45397243	      1.25899136	      5.52364866	    -13.13085948	     14.79999997	     17.02692389	    101.57074261	     -4.93299713	     -9.77561839	     -8.97085508	     23.43819541	     99.31642976
      0.15000000	     -3.17770297	      0.73512728	     -4.03009382	      0.40254957	      1.27619572	     -0.26358582	      5.61363419	     -4.40400119	     -9.94455911	     14.80213289	      0.25834596	     25.32508589	      0.88336595	     -7.27867462	      2.46859409	     -2.25508650	    -14.32134163	     11.67065234	      0.20369131	     22.46213054	      6.91724278	     -7.27867462	    -11.64204891	     -2.00281559	      1.27248293	      5.47404240	    -13.10781647	     14.57824162	     16.85495685	    101.08734656	     -4.77176584	    -10.06482180	     -9.13728922	     22.99592980	     98.96800477
      0.16666670	     -3.39668265	      1.02338813	     -3.94398879	      0.39301253	      1.27037699	     -0.26676771	      6.72315900	     -4.75581654	     -9.59559055	     16.19187289	      0.28260149	     25.56459986	     -0.23245916	     -7.35326425	      3.67540260	     -2.18598139	    -14.42860540	     13.07559465	      0.22821218	     23.03957426	      6.98738197	     -7.35326425	    -13.12190645	     -2.52876235	      1.09655806	      5.36088058	    -13.25643694	     13.37620120	     17.41864933	    103.53949756	     -4.79426927	    -10.32835002	    -10.48704446	     22.90139523	    101.67690201
      0.18333330	     -3.85469128	      1.24086274	     -3.62419848	      0.39214996	      1.26504882	     -0.26743295	      8.00020102	     -5.05545057	     -9.18530706	     17.57302355	      0.30670712	     25.90293096	     -1.34036850	     -7.36856154	      5.18319043	     -2.19438755	    -14.23717886	     14.54976900	      0.25394137	     23.62200672	      6.80358882	     -7.36856154	    -14.43099016	     -2.87535773	      0.94732169	      4.99440648	    -13.54357584	     13.54205819	     17.70076955	    103.71293769	     -4.78541531	    -10.62531167	    -10.69400157	     22.43059295	    101.58010163
      0.20000000	     -3.93518944	      1.38217418	     -3.38403248	      0.39924074	      1.26301869	     -0.26465236	      8.74269357	     -5.30105362	     -8.80311054	     18.86408615	      0.32924041	     26.52913849	     -1.87576712	     -7.36947289	      6.14965224	     -2.25237854	    -14.00885469	     16.05204570	      0.28016105	     24.10709460	      6.62182439	     -7.36947289	    -16.22932896	     -3.15045889	      0.73618851	      4.77838201	    -13.67788830	     13.53577853	     17.66491708	    103.71906777	     -4.98330145	    -10.83654153	    -10.78437823	     22.05493596	    101.59506967
      0.21666670	     -5.49233359	      1.54608568	     -3.09451809	      0.39233243	      1.25303114	     -0.26797527	     11.64030525	     -5.48647864	     -7.65211986	     21.11431674	      0.36851435	     27.16045943	     -3.53567929	     -7.38194524	      9.27410327	     -2.47973538	    -13.41607400	     18.66799061	      0.32581790	     25.38257761	      6.22929617	     -7.38194524	    -16.48349894	     -3.28613257	      0.06282200	      4.11944519	    -14.02836005	     13.73233173	     19.11226216	    102.66919655	     -5.73967727	    -11.00983949	    -11.27749776	     21.45104547	    100.49008278
      0.23333330	     -6.62815696	      1.60456399	     -2.74642833	      0.39207767	      1.24947302	     -0.26798161	     14.18578943	     -5.67141483	     -6.55982672	     23.73997408	      0.41434071	     28.01827151	     -4.68360736	     -7.39403775	     12.24230223	     -2.83038820	    -12.65817441	     21.93587960	      0.38285332	     26.80595197	      5.63579353	     -7.39403775	    -17.26543175	     -3.29561842	     -0.52658983	      3.67892480	    -14.28645772	     13.73648271	     20.12853384	    102.02478041	     -6.13115863	    -11.09531231	    -11.66174226	     20.88603980	     99.45059322
      0.25000000	     -8.28198826	      1.53466958	     -2.38805668	      0.38570865	      1.24771209	     -0.26460170	     17.78532566	     -5.61586289	     -5.03531514	     27.29896835	      0.47645688	     29.17002924	     -6.06369468	     -7.39679884	     16.51443643	     -3.40517764	    -11.37471531	     26.43356068	      0.46135267	     28.11313900	      4.27847525	     -7.39679884	    -17.66174312	     -3.19399175	     -1.14015081	      3.46785896	    -14.50633756	     13.72240912	     21.05804960	    102.34416381	     -6.48300361	    -11.15753299	    -11.78061698	     20.63778770	     99.66810462
      0.26666670	     -9.93512250	      1.40955376	     -2.07917087	      0.38609963	      1.23908670	     -0.26471212	     21.64874154	     -5.47293785	     -3.55212539	     31.40060180	      0.54804389	     30.25119730	     -7.30367230	     -7.40249434	     20.80977757	     -3.95866930	    -10.18118629	     31.02205316	      0.54143697	     29.41060308	      2.91281530	     -7.40249434	    -18.25026876	     -3.10223331	     -1.68065853	      3.10291136	    -14.83113059	     13.55293360	     22.49222137	    101.74994365	     -6.82229602	    -11.26703524	    -11.96875956	     20.77298093	     99.06401528
      0.28333330	    -11.49835592	      1.19404633	     -1.73389101	      0.38750408	      1.23383225	     -0.26534837	     25.35657820	     -5.22382579	     -2.34522458	     35.53947743	      0.62028090	     31.73099116	     -7.93831299	     -7.40487965	     25.11647959	     -4.47268354	     -8.90234135	     35.73672845	      0.62372358	     30.55625071	      1.45444806	     -7.40487965	    -18.86179388	     -2.89184455	     -2.05219543	      2.95712871	    -15.07668724	     13.27896010	     23.28749326	    102.00377694	     -6.83765054	    -11.31468782	    -12.08151439	     20.41297614	     99.19091780
      0.30000000	    -12.93643190	      1.05565537	     -1.49170663	      0.38713810	      1.22495931	     -0.26578525	     29.04017836	     -5.05230433	     -1.36028082	     39.70462978	      0.69297652	     33.52826543	     -7.97821339	     -7.40775426	     29.01413568	     -4.73885851	     -7.72018145	     39.91753270	      0.69669237	     31.95821957	      0.29308712	     -7.40775426	    -19.55122865	     -2.81780309	     -2.26597632	      2.88709923	    -15.37070092	     12.76163784	     24.21704787	    102.17081875	     -6.69021144	    -11.36103579	    -12.20697139	     19.98067724	     99.22497157
